<svg width="25" height="50" viewBox="0 0 25 50" fill="none" xmlns="http://www.w3.org/2000/svg">
<g clip-path="url(#clip0_368_15674)">
<g filter="url(#filter0_d_368_15674)">
<g filter="url(#filter1_d_368_15674)">
<path fill-rule="evenodd" clip-rule="evenodd" d="M12.5342 7.37822C13.8012 7.40409 15.72 8.01935 16.4066 8.22002C17.0934 8.42039 16.8109 8.52276 17.5904 8.829C18.37 9.13495 19.1296 9.96522 19.3575 10.7455C19.5854 11.5261 19.686 12.5753 19.4999 14.2207C19.3138 15.8661 19.4674 18.0238 19.459 19.0119C19.4506 20.0001 19.4823 31.1992 19.4313 33.5C19.3805 35.8008 19.0686 37.2614 18.8525 38.7419C18.6367 40.2226 18.254 41.0576 18.048 41.3554C17.842 41.6529 15.6595 42.6077 12.9064 42.5842C12.677 42.5823 12.4527 42.5791 12.2336 42.5749C12.0148 42.5754 11.7905 42.5747 11.5608 42.5727C8.80765 42.5492 6.64177 41.5573 6.44119 41.2563C6.24 40.955 5.87196 40.1136 5.68118 38.6294C5.49039 37.1455 5.20376 35.6797 5.19202 33.3784C5.18058 31.077 5.40358 19.8801 5.41201 18.892C5.42045 17.9039 5.61092 15.7491 5.45293 14.1008C5.29464 12.4524 5.41316 11.405 5.65464 10.6285C5.89582 9.85222 6.66924 9.03503 7.45388 8.74245C8.23852 8.44956 7.95809 8.34238 8.64796 8.15377C9.33783 7.96485 11.2672 7.38246 12.5342 7.37822" fill="url(#paint0_linear_368_15674)"/>
<path fill-rule="evenodd" clip-rule="evenodd" d="M12.5342 7.37822C13.8012 7.40409 15.72 8.01935 16.4066 8.22002C17.0934 8.42039 16.8109 8.52276 17.5904 8.829C18.37 9.13495 19.1296 9.96522 19.3575 10.7455C19.5854 11.5261 19.686 12.5753 19.4999 14.2207C19.3138 15.8661 19.4674 18.0238 19.459 19.0119C19.4506 20.0001 19.4823 31.1992 19.4313 33.5C19.3805 35.8008 19.0686 37.2614 18.8525 38.7419C18.6367 40.2226 18.254 41.0576 18.048 41.3554C17.842 41.6529 15.6595 42.6077 12.9064 42.5842C12.677 42.5823 12.4527 42.5791 12.2336 42.5749C12.0148 42.5754 11.7905 42.5747 11.5608 42.5727C8.80765 42.5492 6.64177 41.5573 6.44119 41.2563C6.24 40.955 5.87196 40.1136 5.68118 38.6294C5.49039 37.1455 5.20376 35.6797 5.19202 33.3784C5.18058 31.077 5.40358 19.8801 5.41201 18.892C5.42045 17.9039 5.61092 15.7491 5.45293 14.1008C5.29464 12.4524 5.41316 11.405 5.65464 10.6285C5.89582 9.85222 6.66924 9.03503 7.45388 8.74245C8.23852 8.44956 7.95809 8.34238 8.64796 8.15377C9.33783 7.96485 11.2672 7.38246 12.5342 7.37822" fill="url(#paint1_radial_368_15674)"/>
<g filter="url(#filter2_i_368_15674)">
<path d="M6.86719 41.623C6.86719 41.623 9.08443 42.6764 12.2851 42.6764C15.4857 42.6764 17.7029 41.623 17.7029 41.623" stroke="#FF5151" stroke-width="0.4" stroke-linecap="round"/>
</g>
<path fill-rule="evenodd" clip-rule="evenodd" d="M12.534 7.37796C14.3102 7.37795 15.7199 8.01909 16.4064 8.21976C17.0524 8.88807 17.2801 9.62344 17.4943 10.0042C18.22 12.4075 18.5396 14.0754 18.5396 17.0023C18.3535 18.6476 17.7187 21.1189 17.4212 22.0707C17.1008 23.096 16.7693 28.207 16.9944 30.583C16.9944 32.1298 17.5836 36.4378 17.8217 38.2593C18.168 38.371 18.2192 38.5166 18.1474 39.1082C17.9623 40.6343 17.8697 41.2281 17.9349 41.357C17.9081 41.3958 17.9606 41.4437 17.8697 41.5011C16.3907 42.2671 13.8803 42.6504 12.1522 42.6504C10.424 42.6504 8.12658 42.2245 6.74678 41.4841C6.74678 41.3531 6.72791 41.0445 6.70448 40.8531C6.68104 40.6617 6.40684 39.4004 6.49488 38.6293C6.49488 38.5086 6.53518 38.4124 6.76982 38.2806C6.76982 37.496 7.33442 34.6164 7.69541 30.583C7.91513 27.1617 7.71559 23.1724 7.39797 21.9988C6.73479 19.5485 6.50598 18.488 6.51441 17.4999C6.10556 17.4999 6.3858 13.9032 6.65147 13.0489C6.80371 12.0678 7.4669 9.95106 7.68603 9.55264C7.90516 9.15422 8.04113 8.46884 8.64782 8.1535C9.33769 7.96459 10.7579 7.37797 12.534 7.37796Z" fill="url(#paint2_linear_368_15674)"/>
<g filter="url(#filter3_f_368_15674)">
<path fill-rule="evenodd" clip-rule="evenodd" d="M16.416 8.22656C18.1104 10.6683 18.4689 14.1766 18.5274 17.0547C18.7529 14.0231 18.1206 10.5099 16.8373 8.39612C16.7123 8.31409 16.5209 8.25159 16.416 8.22656Z" fill="#280A9E"/>
</g>
<g filter="url(#filter4_f_368_15674)">
<path fill-rule="evenodd" clip-rule="evenodd" d="M8.56055 8.17871C6.86617 10.6204 6.41061 14.0749 6.35207 16.9529C6.12665 13.9214 6.85098 10.4904 8.13428 8.37659C8.23975 8.27893 8.45569 8.20374 8.56055 8.17871Z" fill="#280A9E"/>
</g>
<g filter="url(#filter5_di_368_15674)">
<path d="M6.60205 9.12793C6.60205 9.12793 8.81189 7.32544 12.4381 7.32544C16.0644 7.32544 18.2742 9.12793 18.2742 9.12793" stroke="white" stroke-width="0.4" stroke-linecap="round"/>
</g>
<path fill-rule="evenodd" clip-rule="evenodd" d="M7.39527 33.8715L7.38047 33.8823C7.36227 33.8956 7.33686 33.8921 7.32291 33.8744C7.31579 33.8654 7.31249 33.8553 7.31412 33.8439C7.36499 33.4904 8.20689 27.4807 7.38563 22.1516C7.38389 22.1403 7.38687 22.1288 7.39386 22.1198C7.40752 22.1021 7.43269 22.0984 7.45089 22.1113L7.45166 22.1119C7.46103 22.1186 7.46731 22.1287 7.46906 22.1401C8.31603 27.6364 7.39784 33.8538 7.39527 33.8715Z" fill="#3910D7"/>
<path fill-rule="evenodd" clip-rule="evenodd" d="M7.39527 33.8715L7.38047 33.8823C7.36227 33.8956 7.33686 33.8921 7.32291 33.8744C7.31579 33.8654 7.31249 33.8553 7.31412 33.8439C7.36499 33.4904 8.20689 27.4807 7.38563 22.1516C7.38389 22.1403 7.38687 22.1288 7.39386 22.1198C7.40752 22.1021 7.43269 22.0984 7.45089 22.1113L7.45166 22.1119C7.46103 22.1186 7.46731 22.1287 7.46906 22.1401C8.31603 27.6364 7.39784 33.8538 7.39527 33.8715Z" fill="white" fill-opacity="0.59"/>
<path fill-rule="evenodd" clip-rule="evenodd" d="M5.11148 19.3659C4.39798 19.6846 4.06169 20.1168 3.89648 20.3769C3.73189 20.6368 3.92521 21.0428 3.92521 21.0428L5.49579 20.0965C5.49579 20.0965 5.37007 19.7625 5.51705 19.621C5.66374 19.4796 5.61223 19.5032 5.90988 19.7433C6.20723 19.9836 6.37573 20.0802 6.37573 20.0802C6.37573 20.0802 6.18628 19.009 6.12048 18.6914C6.10831 18.632 6.06259 17.9423 5.80408 18.1017C5.80408 18.1017 5.82468 19.0472 5.11148 19.3659Z" fill="#562DF8"/>
<path fill-rule="evenodd" clip-rule="evenodd" d="M5.11148 19.3659C4.39798 19.6846 4.06169 20.1168 3.89648 20.3769C3.73189 20.6368 3.92521 21.0428 3.92521 21.0428L5.49579 20.0965C5.49579 20.0965 5.37007 19.7625 5.51705 19.621C5.66374 19.4796 5.61223 19.5032 5.90988 19.7433C6.20723 19.9836 6.37573 20.0802 6.37573 20.0802C6.37573 20.0802 6.18628 19.009 6.12048 18.6914C6.10831 18.632 6.06259 17.9423 5.80408 18.1017C5.80408 18.1017 5.82468 19.0472 5.11148 19.3659Z" fill="url(#paint3_linear_368_15674)"/>
<path fill-rule="evenodd" clip-rule="evenodd" d="M17.2206 33.9549L17.235 33.9657C17.2531 33.9794 17.2787 33.9763 17.293 33.9587C17.3001 33.9499 17.3035 33.9406 17.3021 33.9294C17.2585 33.5834 16.5176 27.5551 17.4304 22.2369C17.4323 22.2256 17.4295 22.214 17.4226 22.2048C17.4091 22.1869 17.384 22.1829 17.3656 22.1956L17.365 22.196C17.3556 22.2025 17.3492 22.2125 17.3472 22.2237C16.4065 27.7048 17.2184 33.9371 17.2206 33.9549Z" fill="#3910D7"/>
<path fill-rule="evenodd" clip-rule="evenodd" d="M17.2206 33.9549L17.235 33.9657C17.2531 33.9794 17.2787 33.9763 17.293 33.9587C17.3001 33.9499 17.3035 33.9406 17.3021 33.9294C17.2585 33.5834 16.5176 27.5551 17.4304 22.2369C17.4323 22.2256 17.4295 22.214 17.4226 22.2048C17.4091 22.1869 17.384 22.1829 17.3656 22.1956L17.365 22.196C17.3556 22.2025 17.3492 22.2125 17.3472 22.2237C16.4065 27.7048 17.2184 33.9371 17.2206 33.9549Z" fill="white" fill-opacity="0.59"/>
<path d="M18.9274 29.9529C18.9466 30.7792 18.7929 34.1385 18.6064 34.7328C18.432 34.3664 17.8621 34.0289 17.6169 31.3351C17.5098 30.1579 17.4922 28.8303 17.518 27.6032L18.9709 27.6029C18.9471 28.8197 18.9294 29.7261 18.9274 29.9529ZM18.8729 19.8734C18.9887 19.7882 19.1118 19.8997 19.1097 20.0434C19.0843 21.7703 19.0335 24.3856 18.992 26.5036L17.5527 26.503C17.6021 25.3846 17.6822 24.4364 17.7576 23.8947C17.923 22.7069 18.1615 21.6386 18.5429 20.3247C18.592 20.1557 18.7312 19.9777 18.8729 19.8734Z" fill="#000202"/>
<path d="M18.9274 29.9529C18.9466 30.7792 18.7929 34.1385 18.6064 34.7328C18.432 34.3664 17.8621 34.0289 17.6169 31.3351C17.5098 30.1579 17.4922 28.8303 17.518 27.6032L18.9709 27.6029C18.9471 28.8197 18.9294 29.7261 18.9274 29.9529ZM18.8729 19.8734C18.9887 19.7882 19.1118 19.8997 19.1097 20.0434C19.0843 21.7703 19.0335 24.3856 18.992 26.5036L17.5527 26.503C17.6021 25.3846 17.6822 24.4364 17.7576 23.8947C17.923 22.7069 18.1615 21.6386 18.5429 20.3247C18.592 20.1557 18.7312 19.9777 18.8729 19.8734Z" fill="url(#paint4_linear_368_15674)"/>
<path d="M5.72834 29.9529C5.70913 30.7792 5.8629 34.1385 6.0494 34.7328C6.22376 34.3664 6.79367 34.0289 7.03882 31.3351C7.14594 30.1579 7.16355 28.8303 7.1378 27.6032L5.68483 27.6029C5.70863 28.8197 5.72639 29.7261 5.72834 29.9529ZM5.78287 19.8734C5.66711 19.7882 5.54396 19.8997 5.54607 20.0434C5.57142 21.7703 5.62229 24.3856 5.66373 26.5036L7.10302 26.503C7.05371 25.3846 6.97358 24.4364 6.89815 23.8947C6.73272 22.7069 6.49425 21.6386 6.11286 20.3247C6.06377 20.1557 5.92452 19.9777 5.78287 19.8734Z" fill="#000202"/>
<path d="M5.72834 29.9529C5.70913 30.7792 5.8629 34.1385 6.0494 34.7328C6.22376 34.3664 6.79367 34.0289 7.03882 31.3351C7.14594 30.1579 7.16355 28.8303 7.1378 27.6032L5.68483 27.6029C5.70863 28.8197 5.72639 29.7261 5.72834 29.9529ZM5.78287 19.8734C5.66711 19.7882 5.54396 19.8997 5.54607 20.0434C5.57142 21.7703 5.62229 24.3856 5.66373 26.5036L7.10302 26.503C7.05371 25.3846 6.97358 24.4364 6.89815 23.8947C6.73272 22.7069 6.49425 21.6386 6.11286 20.3247C6.06377 20.1557 5.92452 19.9777 5.78287 19.8734Z" fill="url(#paint5_linear_368_15674)"/>
<path fill-rule="evenodd" clip-rule="evenodd" d="M18.6032 34.7209C18.6032 34.7209 19.0889 34.8389 19.3965 34.3177L19.3966 34.2323C19.0267 34.7955 18.6271 34.65 18.6271 34.65" fill="#000202"/>
<path fill-rule="evenodd" clip-rule="evenodd" d="M6.05191 34.7203C6.05191 34.7203 5.51985 34.8589 5.21216 34.3376L5.21208 34.2523C5.58205 34.8155 6.028 34.6494 6.028 34.6494" fill="#000202"/>
<path fill-rule="evenodd" clip-rule="evenodd" d="M19.0608 18.2073C19.0608 18.2073 19.0539 19.0159 19.7615 19.3467C20.4695 19.6779 21.0215 20.1661 21.182 20.4288C21.3424 20.6917 21.1422 21.094 21.1422 21.094L19.3346 20.2071C19.3346 20.2071 19.466 19.8752 19.3215 19.7313C19.1772 19.5874 19.1909 19.6039 18.8895 19.8392C18.5875 20.0744 18.4551 20.1755 18.4551 20.1755C18.4551 20.1755 18.6628 19.1077 18.734 18.7916C18.7472 18.7324 18.8047 18.0432 19.0608 18.2073Z" fill="url(#paint6_linear_368_15674)"/>
<path fill-rule="evenodd" clip-rule="evenodd" d="M9.78302 14.95C9.86602 14.9507 9.93473 14.8667 9.93562 14.7624C9.93651 14.6585 9.86924 14.5733 9.78624 14.5726C9.70325 14.5719 9.63453 14.6559 9.63364 14.7598C9.63275 14.8641 9.70002 14.9493 9.78302 14.95" fill="#4E2ADB"/>
<path fill-rule="evenodd" clip-rule="evenodd" d="M15.3206 14.9969C15.4036 14.9976 15.4723 14.9135 15.4732 14.8092C15.4741 14.7054 15.4068 14.6202 15.3238 14.6195C15.2408 14.6187 15.1721 14.7028 15.1712 14.8066C15.1704 14.9109 15.2376 14.9962 15.3206 14.9969" fill="#4E2ADB"/>
<path fill-rule="evenodd" clip-rule="evenodd" d="M6.84567 38.2279L6.89433 38.2376L6.87861 38.2673C6.87767 38.2676 6.53655 38.3739 6.53321 38.5455C6.52782 38.8471 6.54428 39.1703 6.58068 39.5716C6.6171 39.9711 6.67346 40.4508 6.74881 41.0656C6.76676 41.2129 6.7731 41.3484 6.77016 41.4731L6.69913 41.3951C6.69813 41.2933 6.69156 41.1849 6.67709 41.0683C6.60219 40.4553 6.54583 39.9762 6.50897 39.5737C6.4721 39.1721 6.45612 38.848 6.46199 38.5446C6.46556 38.3462 6.84473 38.2282 6.84567 38.2279" fill="#1F2222"/>
<path fill-rule="evenodd" clip-rule="evenodd" d="M17.8262 38.2279L17.7775 38.2376L17.7933 38.2673C17.7942 38.2676 18.1353 38.3739 18.1387 38.5455C18.1441 38.8471 18.1276 39.1703 18.0912 39.5716C18.0548 39.9711 17.9984 40.4508 17.9231 41.0656C17.9051 41.2129 17.8988 41.3484 17.9017 41.4731L17.9727 41.3951C17.9737 41.2933 17.9803 41.1849 17.9948 41.0683C18.0697 40.4553 18.126 39.9762 18.1629 39.5737C18.1998 39.1721 18.2158 38.848 18.2099 38.5446C18.2063 38.3462 17.8271 38.2282 17.8262 38.2279" fill="#1F2222"/>
<path fill-rule="evenodd" clip-rule="evenodd" d="M8.09702 15.8897C6.55908 16.4459 6.33649 16.8481 6.33649 16.8481C6.33649 16.8481 6.3426 17.9712 6.65861 19.4261C6.97491 20.8815 7.37153 22.0526 7.37153 22.0526C9.68585 20.8978 15.1511 20.9444 17.4453 22.1386C17.4453 22.1386 17.8622 20.9745 18.203 19.5246C18.5438 18.0754 18.5691 16.9525 18.5691 16.9525C18.5691 16.9525 18.3537 16.5466 16.8255 15.9642C14.1963 14.9629 10.7429 14.9334 8.09702 15.8897" fill="url(#paint7_linear_368_15674)"/>
<path fill-rule="evenodd" clip-rule="evenodd" d="M12.3032 34.4673C10.7912 34.4637 8.83181 34.3485 7.30293 33.8086C7.10232 35.2783 6.90171 36.7477 6.7011 38.2174C6.67986 38.3714 6.76104 38.5148 6.90599 38.5796C7.41902 38.8086 8.87036 39.2732 12.2618 39.316C15.6534 39.3311 17.1128 38.8914 17.6297 38.6712C17.7754 38.6089 17.859 38.4669 17.8407 38.3126C17.6652 36.8396 17.4897 35.367 17.3142 33.894C15.7761 34.4078 13.815 34.4895 12.3032 34.4673" fill="url(#paint8_linear_368_15674)"/>
</g>
</g>
</g>
<defs>
<filter id="filter0_d_368_15674" x="0.0300782" y="3.325" width="25.0141" height="43.351" filterUnits="userSpaceOnUse" color-interpolation-filters="sRGB">
<feFlood flood-opacity="0" result="BackgroundImageFix"/>
<feColorMatrix in="SourceAlpha" type="matrix" values="0 0 0 0 0 0 0 0 0 0 0 0 0 0 0 0 0 0 127 0" result="hardAlpha"/>
<feOffset/>
<feGaussianBlur stdDeviation="1.9"/>
<feComposite in2="hardAlpha" operator="out"/>
<feColorMatrix type="matrix" values="0 0 0 0 0 0 0 0 0 0 0 0 0 0 0 0 0 0 0.25 0"/>
<feBlend mode="normal" in2="BackgroundImageFix" result="effect1_dropShadow_368_15674"/>
<feBlend mode="normal" in="SourceGraphic" in2="effect1_dropShadow_368_15674" result="shape"/>
</filter>
<filter id="filter1_d_368_15674" x="0.830078" y="5.125" width="23.4141" height="41.751" filterUnits="userSpaceOnUse" color-interpolation-filters="sRGB">
<feFlood flood-opacity="0" result="BackgroundImageFix"/>
<feColorMatrix in="SourceAlpha" type="matrix" values="0 0 0 0 0 0 0 0 0 0 0 0 0 0 0 0 0 0 127 0" result="hardAlpha"/>
<feOffset dy="1"/>
<feGaussianBlur stdDeviation="1.5"/>
<feColorMatrix type="matrix" values="0 0 0 0 0 0 0 0 0 0 0 0 0 0 0 0 0 0 0.5 0"/>
<feBlend mode="normal" in2="BackgroundImageFix" result="effect1_dropShadow_368_15674"/>
<feBlend mode="normal" in="SourceGraphic" in2="effect1_dropShadow_368_15674" result="shape"/>
</filter>
<filter id="filter2_i_368_15674" x="6.66699" y="41.4229" width="11.2358" height="1.45312" filterUnits="userSpaceOnUse" color-interpolation-filters="sRGB">
<feFlood flood-opacity="0" result="BackgroundImageFix"/>
<feBlend mode="normal" in="SourceGraphic" in2="BackgroundImageFix" result="shape"/>
<feColorMatrix in="SourceAlpha" type="matrix" values="0 0 0 0 0 0 0 0 0 0 0 0 0 0 0 0 0 0 127 0" result="hardAlpha"/>
<feOffset dy="-0.1"/>
<feComposite in2="hardAlpha" operator="arithmetic" k2="-1" k3="1"/>
<feColorMatrix type="matrix" values="0 0 0 0 1 0 0 0 0 0 0 0 0 0 0 0 0 0 1 0"/>
<feBlend mode="normal" in2="shape" result="effect1_innerShadow_368_15674"/>
</filter>
<filter id="filter3_f_368_15674" x="16.316" y="8.12656" width="2.35625" height="9.02813" filterUnits="userSpaceOnUse" color-interpolation-filters="sRGB">
<feFlood flood-opacity="0" result="BackgroundImageFix"/>
<feBlend mode="normal" in="SourceGraphic" in2="BackgroundImageFix" result="shape"/>
<feGaussianBlur stdDeviation="0.05" result="effect1_foregroundBlur_368_15674"/>
</filter>
<filter id="filter4_f_368_15674" x="6.21104" y="8.07871" width="2.44951" height="8.97441" filterUnits="userSpaceOnUse" color-interpolation-filters="sRGB">
<feFlood flood-opacity="0" result="BackgroundImageFix"/>
<feBlend mode="normal" in="SourceGraphic" in2="BackgroundImageFix" result="shape"/>
<feGaussianBlur stdDeviation="0.05" result="effect1_foregroundBlur_368_15674"/>
</filter>
<filter id="filter5_di_368_15674" x="5.60186" y="6.325" width="13.6723" height="3.80313" filterUnits="userSpaceOnUse" color-interpolation-filters="sRGB">
<feFlood flood-opacity="0" result="BackgroundImageFix"/>
<feColorMatrix in="SourceAlpha" type="matrix" values="0 0 0 0 0 0 0 0 0 0 0 0 0 0 0 0 0 0 127 0" result="hardAlpha"/>
<feOffset/>
<feGaussianBlur stdDeviation="0.4"/>
<feComposite in2="hardAlpha" operator="out"/>
<feColorMatrix type="matrix" values="0 0 0 0 0 0 0 0 0 0 0 0 0 0 0 0 0 0 0.25 0"/>
<feBlend mode="normal" in2="BackgroundImageFix" result="effect1_dropShadow_368_15674"/>
<feBlend mode="normal" in="SourceGraphic" in2="effect1_dropShadow_368_15674" result="shape"/>
<feColorMatrix in="SourceAlpha" type="matrix" values="0 0 0 0 0 0 0 0 0 0 0 0 0 0 0 0 0 0 127 0" result="hardAlpha"/>
<feOffset dy="-0.1"/>
<feComposite in2="hardAlpha" operator="arithmetic" k2="-1" k3="1"/>
<feColorMatrix type="matrix" values="0 0 0 0 0.227451 0 0 0 0 0.0980392 0 0 0 0 0.752941 0 0 0 1 0"/>
<feBlend mode="normal" in2="shape" result="effect2_innerShadow_368_15674"/>
</filter>
<linearGradient id="paint0_linear_368_15674" x1="12.5342" y1="7.37822" x2="12.2336" y2="42.5785" gradientUnits="userSpaceOnUse">
<stop stop-color="#6944FF"/>
<stop offset="0.118627" stop-color="#512AEE"/>
<stop offset="0.238533" stop-color="#3817BD"/>
<stop offset="0.447139" stop-color="#4B26E0"/>
<stop offset="0.528911" stop-color="#502AEA"/>
<stop offset="0.654323" stop-color="#4A25DC"/>
<stop offset="0.760241" stop-color="#3819B6"/>
<stop offset="1" stop-color="#3217A0"/>
</linearGradient>
<radialGradient id="paint1_radial_368_15674" cx="0" cy="0" r="1" gradientUnits="userSpaceOnUse" gradientTransform="translate(12.3839 24.9783) rotate(90) scale(23.0724 7.27485)">
<stop offset="0.556803" stop-color="#7555F7"/>
<stop offset="0.765917" stop-color="#6F4EF2" stop-opacity="0.823944"/>
<stop offset="0.881398" stop-color="#6341EB" stop-opacity="0.505352"/>
<stop offset="0.956877" stop-color="#5D3AE6" stop-opacity="0.332282"/>
<stop offset="1" stop-color="#512DDE" stop-opacity="0"/>
</radialGradient>
<linearGradient id="paint2_linear_368_15674" x1="12.5027" y1="7.37769" x2="12.2021" y2="42.5779" gradientUnits="userSpaceOnUse">
<stop stop-color="#4A26D8"/>
<stop offset="0.208321" stop-color="#6F4BFF"/>
<stop offset="0.394222" stop-color="#5633E3"/>
<stop offset="0.414333" stop-color="#6341E9"/>
<stop offset="0.441281" stop-color="#6A4AEC"/>
<stop offset="0.514121" stop-color="#7454F5"/>
<stop offset="0.554595" stop-color="#7555F7"/>
<stop offset="0.627196" stop-color="#7253F2"/>
<stop offset="0.708616" stop-color="#5E3EE0"/>
<stop offset="0.772164" stop-color="#4726CC"/>
<stop offset="0.906375" stop-color="#5931FF"/>
<stop offset="1" stop-color="#7C5BFF"/>
</linearGradient>
<linearGradient id="paint3_linear_368_15674" x1="3.84741" y1="20.8125" x2="6.19687" y2="19.0612" gradientUnits="userSpaceOnUse">
<stop stop-color="#441DE0"/>
<stop offset="0.130621" stop-color="#562DF8"/>
<stop offset="0.561775" stop-color="#562DF8"/>
<stop offset="0.674009" stop-color="#401FC5"/>
<stop offset="0.909079" stop-color="#4B23ED"/>
</linearGradient>
<linearGradient id="paint4_linear_368_15674" x1="19.1114" y1="27.284" x2="17.4534" y2="27.284" gradientUnits="userSpaceOnUse">
<stop/>
<stop offset="1" stop-color="#1F1F1F"/>
</linearGradient>
<linearGradient id="paint5_linear_368_15674" x1="5.54438" y1="27.284" x2="7.20235" y2="27.284" gradientUnits="userSpaceOnUse">
<stop/>
<stop offset="1" stop-color="#1F1F1F"/>
</linearGradient>
<linearGradient id="paint6_linear_368_15674" x1="21.2654" y1="20.6771" x2="18.7425" y2="19.3923" gradientUnits="userSpaceOnUse">
<stop stop-color="#441DE0"/>
<stop offset="0.244516" stop-color="#562DF8"/>
<stop offset="0.685118" stop-color="#562DF8"/>
<stop offset="0.81819" stop-color="#401FC5"/>
<stop offset="1" stop-color="#4B23ED"/>
</linearGradient>
<linearGradient id="paint7_linear_368_15674" x1="12.4674" y1="15.1929" x2="12.4084" y2="22.0956" gradientUnits="userSpaceOnUse">
<stop offset="0.242236"/>
<stop offset="0.550937" stop-color="#161616"/>
<stop offset="1" stop-color="#3E3E3E"/>
</linearGradient>
<linearGradient id="paint8_linear_368_15674" x1="12.3085" y1="33.8513" x2="12.2619" y2="39.316" gradientUnits="userSpaceOnUse">
<stop stop-color="#363636"/>
<stop offset="1"/>
</linearGradient>
<clipPath id="clip0_368_15674">
<rect width="25" height="50" fill="white"/>
</clipPath>
</defs>
</svg>
