<svg width="25" height="28" viewBox="0 0 25 28" fill="none" xmlns="http://www.w3.org/2000/svg">
<path d="M17.9932 3.3916L21.3309 3.99242C22.8759 4.27053 24 5.61511 24 7.18497V20.4975C24 22.0674 22.8759 23.412 21.3309 23.6901L17.9932 24.2909V3.3916Z" fill="url(#paint0_linear_4604_7882)"/>
<path d="M0.534668 8.11123C0.534668 6.45115 1.788 5.05897 3.43895 4.88519L17.4957 3.40553C19.411 3.20391 21.0792 4.70568 21.0792 6.63157V21.0509C21.0792 22.9768 19.411 24.4785 17.4957 24.2769L3.43895 22.7973C1.788 22.6235 0.534668 21.2313 0.534668 19.5712V8.11123Z" fill="url(#paint1_linear_4604_7882)"/>
<path d="M17.647 4.93091C18.6109 4.81774 19.4574 5.57065 19.4575 6.54126V21.1409C19.4575 22.1116 18.611 22.8653 17.647 22.7522L3.58936 21.0979C2.77286 21.0016 2.1579 20.3097 2.15771 19.4875V8.19556C2.15771 7.37322 2.77272 6.6805 3.58936 6.58423L17.647 4.93091Z" stroke="url(#paint2_linear_4604_7882)" stroke-width="1.08129"/>
<ellipse cx="10.3541" cy="13.8413" rx="2.6446" ry="4.63889" fill="url(#paint3_linear_4604_7882)"/>
<path d="M5.18551 6.88811C4.99057 8.06995 4.53597 9.06755 3.92172 9.66146C3.30746 10.2554 2.58385 10.3969 1.9101 10.055L2.36776 7.28027C2.62199 7.40929 2.89502 7.35588 3.1268 7.13178C3.35857 6.90769 3.5301 6.53126 3.60366 6.08532L5.18551 6.88811Z" fill="white"/>
<path d="M2.64509 17.1843C3.25984 17.1843 3.85538 17.56 4.32934 18.2467C4.8033 18.9335 5.12606 19.8884 5.24213 20.9473L3.29019 21.6057C3.26136 21.3426 3.18118 21.1054 3.06345 20.9348C2.94572 20.7642 2.79779 20.6709 2.64509 20.6709V17.1843Z" fill="white"/>
<path d="M16.0103 22.3032C16.0103 21.631 16.0857 20.9653 16.2324 20.3443C16.379 19.7232 16.594 19.1589 16.865 18.6836C17.136 18.2083 17.4577 17.8312 17.8117 17.574C18.1658 17.3167 18.5453 17.1843 18.9285 17.1843L18.9285 22.3032L16.0103 22.3032Z" fill="white"/>
<path d="M18.9285 10.2377C18.5453 10.2377 18.1658 10.1053 17.8117 9.84809C17.4577 9.59084 17.136 9.21379 16.865 8.73846C16.594 8.26313 16.379 7.69882 16.2324 7.07777C16.0857 6.45672 16.0103 5.79109 16.0103 5.11887L18.9285 5.11887L18.9285 10.2377Z" fill="white"/>
<g clip-path="url(#clip0_4604_7882)">
<path d="M24.3475 19.5C24.3475 23.0899 22.1283 26 19.3909 26C16.6534 26 16.2412 26 16.0923 26L16.2412 13.0001C17.104 12.9999 18.105 13 19.3909 13C22.1283 13 24.3475 15.9102 24.3475 19.5Z" fill="url(#paint4_linear_4604_7882)"/>
<ellipse cx="16.3038" cy="19.5" rx="4.95662" ry="6.5" fill="#FFF34C"/>
<ellipse cx="16.3038" cy="19.4998" rx="3.6339" ry="4.76541" fill="url(#paint5_linear_4604_7882)"/>
<ellipse cx="16.6469" cy="19.4999" rx="2.91941" ry="4.07171" fill="#FFF34C"/>
</g>
<defs>
<linearGradient id="paint0_linear_4604_7882" x1="14.0512" y1="3.3916" x2="14.0512" y2="24.2909" gradientUnits="userSpaceOnUse">
<stop stop-color="#BFFFB3"/>
<stop offset="0.122174" stop-color="#1FB700"/>
<stop offset="0.857007" stop-color="#1EB600"/>
<stop offset="1" stop-color="#0F5700"/>
</linearGradient>
<linearGradient id="paint1_linear_4604_7882" x1="21.0792" y1="13.8412" x2="0.534668" y2="13.8412" gradientUnits="userSpaceOnUse">
<stop stop-color="#6BF051"/>
<stop offset="1" stop-color="#51DF34"/>
</linearGradient>
<linearGradient id="paint2_linear_4604_7882" x1="1.6167" y1="13.8412" x2="19.9986" y2="13.8412" gradientUnits="userSpaceOnUse">
<stop stop-color="white"/>
<stop offset="1" stop-color="white"/>
</linearGradient>
<linearGradient id="paint3_linear_4604_7882" x1="10.3541" y1="10.0804" x2="11.5" y2="21.5001" gradientUnits="userSpaceOnUse">
<stop stop-color="white"/>
<stop offset="0.440429" stop-color="#63FF44"/>
</linearGradient>
<linearGradient id="paint4_linear_4604_7882" x1="20.2199" y1="13" x2="20.2199" y2="26" gradientUnits="userSpaceOnUse">
<stop stop-color="#FFC444"/>
<stop offset="0.466612" stop-color="#FFB411"/>
<stop offset="0.668509" stop-color="#FFB411"/>
<stop offset="1" stop-color="#FF8011"/>
</linearGradient>
<linearGradient id="paint5_linear_4604_7882" x1="21.0211" y1="19.4998" x2="12.6699" y2="19.4998" gradientUnits="userSpaceOnUse">
<stop stop-color="#FFF34C"/>
<stop offset="1" stop-color="#FFB411"/>
</linearGradient>
<clipPath id="clip0_4604_7882">
<rect width="13" height="13" fill="white" transform="translate(11.3472 13)"/>
</clipPath>
</defs>
</svg>
