<svg width="24" height="24" viewBox="0 0 24 24" fill="none" xmlns="http://www.w3.org/2000/svg">
<mask id="mask0_3227_17922" style="mask-type:alpha" maskUnits="userSpaceOnUse" x="0" y="0" width="24" height="24">
<rect width="24" height="24" fill="#D9D9D9"/>
</mask>
<g mask="url(#mask0_3227_17922)">
<path d="M1.74991 13.0497C1.54991 12.8497 1.45408 12.6164 1.46241 12.3497C1.47075 12.0831 1.57491 11.8497 1.77491 11.6497C1.97491 11.4664 2.20825 11.3706 2.47491 11.3622C2.74158 11.3539 2.97491 11.4497 3.17491 11.6497L7.42491 15.8997C7.62491 16.0997 7.72075 16.3331 7.71241 16.5997C7.70408 16.8664 7.59991 17.0997 7.39991 17.2997C7.19991 17.4831 6.96658 17.5789 6.69991 17.5872C6.43325 17.5956 6.19991 17.4997 5.99991 17.2997L1.74991 13.0497ZM12.3499 15.1747L20.8499 6.67472C21.0499 6.47472 21.2832 6.37889 21.5499 6.38722C21.8166 6.39555 22.0499 6.49972 22.2499 6.69972C22.4332 6.89972 22.5291 7.13305 22.5374 7.39972C22.5457 7.66639 22.4499 7.89972 22.2499 8.09972L13.0499 17.2997C12.8499 17.4997 12.6166 17.5997 12.3499 17.5997C12.0832 17.5997 11.8499 17.4997 11.6499 17.2997L7.39991 13.0497C7.21658 12.8664 7.12491 12.6372 7.12491 12.3622C7.12491 12.0872 7.21658 11.8497 7.39991 11.6497C7.59991 11.4497 7.83741 11.3497 8.11241 11.3497C8.38741 11.3497 8.62491 11.4497 8.82491 11.6497L12.3499 15.1747ZM16.5749 8.12472L13.0499 11.6497C12.8666 11.8331 12.6374 11.9247 12.3624 11.9247C12.0874 11.9247 11.8499 11.8331 11.6499 11.6497C11.4499 11.4497 11.3499 11.2122 11.3499 10.9372C11.3499 10.6622 11.4499 10.4247 11.6499 10.2247L15.1749 6.69972C15.3582 6.51639 15.5874 6.42472 15.8624 6.42472C16.1374 6.42472 16.3749 6.51639 16.5749 6.69972C16.7749 6.89972 16.8749 7.13722 16.8749 7.41222C16.8749 7.68722 16.7749 7.92472 16.5749 8.12472Z" fill="white"/>
</g>
</svg>
