<svg width="24" height="24" viewBox="0 0 24 24" fill="none" xmlns="http://www.w3.org/2000/svg">
<circle cx="13.1156" cy="6.19472" r="3.15078" fill="#101828"/>
<path d="M7.43208 11.5505C5.69366 12.1359 3.12464 12.3433 1.26651 12.4047C0.590491 12.4271 0.0649806 13.0143 0.139367 13.6866C0.201216 14.2456 0.661916 14.6755 1.22424 14.667C3.32868 14.6352 6.53172 14.3415 8.27624 13.9586C8.56716 13.8948 8.85864 14.0967 8.89668 14.3921C9.19268 16.6904 10.1347 19.1206 10.6682 20.0919C10.7189 20.1841 10.8158 20.2378 10.9211 20.2378H17.3025C17.4475 20.2378 17.5445 20.088 17.4919 19.9529C16.9495 18.5596 16.7775 16.7374 16.7531 15.7683C16.7513 15.696 16.8443 15.6691 16.8834 15.73C17.6151 16.8721 18.5139 18.1825 19.8394 19.6031C20.1921 19.981 20.7639 20.043 21.2017 19.768C21.7485 19.4246 21.8869 18.6882 21.5038 18.1684C19.8063 15.8654 18.6662 14.2657 17.4312 11.9328C17.0005 11.1194 16.1672 10.5909 15.2468 10.5919C13.9737 10.5932 12.3524 10.5955 10.9799 10.597C9.76838 10.5983 8.58023 11.1638 7.43208 11.5505Z" fill="#101828"/>
</svg>
