<svg width="34" height="34" viewBox="0 0 34 34" fill="none" xmlns="http://www.w3.org/2000/svg">
<g clip-path="url(#clip0_595_4573)">
<path d="M0.802719 11.8262C0.281961 13.4576 -6.63945e-05 15.1957 1.17243e-08 16.9999C-6.63945e-05 18.8041 0.282027 20.5423 0.802785 22.1738L17 22.913L33.1972 22.1739C33.7179 20.5424 34.0001 18.8041 34.0001 17C34 15.1957 33.718 13.4576 33.1972 11.8261L17 11.087L0.802719 11.8262Z" fill="#F0F0F0"/>
<path d="M33.1971 11.8262L16.9999 11.0871L0.802623 11.8262C0.648295 12.3099 0.515416 12.8031 0.404053 13.3044H33.5955C33.4843 12.803 33.3514 12.3097 33.1971 11.8262Z" fill="#D80027"/>
<path d="M0.404297 20.6956C0.515527 21.1969 0.648406 21.6901 0.802734 22.1738L0.804328 22.1738L16.9999 22.9129L33.1971 22.1738C33.3514 21.6901 33.4843 21.1969 33.5956 20.6956H0.404297Z" fill="#D80027"/>
<path d="M16.9999 33.9999C24.5845 33.9999 31.008 29.0325 33.1971 22.1738H0.802734C2.99182 29.0325 9.41543 33.9999 16.9999 33.9999Z" fill="#6DA544"/>
<path d="M16.9999 6.10358e-05C9.41542 0.000127442 2.99195 4.96751 0.802734 11.8261L33.1971 11.8262C31.0081 4.96745 24.5846 -5.37042e-06 16.9999 6.10358e-05Z" fill="#338AF3"/>
<path d="M7.76849 7.02179C7.76849 5.42957 8.88751 4.09945 10.3818 3.77313C10.1522 3.72293 9.91388 3.69577 9.66911 3.69577C7.83218 3.69577 6.34302 5.18486 6.34302 7.02186C6.34302 8.85886 7.83204 10.3479 9.66911 10.3479C9.91388 10.3479 10.1521 10.3207 10.3818 10.2706C8.88757 9.94413 7.76849 8.61402 7.76849 7.02179Z" fill="#F0F0F0"/>
<path d="M12.3477 8.53366L12.5728 9.22661H13.3014L12.712 9.65493L12.9371 10.3479L12.3477 9.91963L11.7581 10.3479L11.9833 9.65493L11.3938 9.22661H12.1224L12.3477 8.53366Z" fill="#F0F0F0"/>
<path d="M14.6732 8.53366L14.8984 9.22661H15.627L15.0375 9.65493L15.2627 10.3479L14.6732 9.91963L14.0837 10.3479L14.3089 9.65493L13.7195 9.22661H14.448L14.6732 8.53366Z" fill="#F0F0F0"/>
<path d="M16.9988 8.53366L17.2239 9.22661H17.9526L17.3631 9.65493L17.5882 10.3479L16.9988 9.91963L16.4092 10.3479L16.6345 9.65493L16.0449 9.22661H16.7736L16.9988 8.53366Z" fill="#F0F0F0"/>
<path d="M19.3245 8.53366L19.5496 9.22661H20.2782L19.6888 9.65493L19.914 10.3479L19.3245 9.91963L18.7349 10.3479L18.9602 9.65493L18.3706 9.22661H19.0992L19.3245 8.53366Z" fill="#F0F0F0"/>
<path d="M21.65 8.53366L21.8752 9.22661H22.6038L22.0144 9.65493L22.2396 10.3479L21.65 9.91963L21.0605 10.3479L21.2857 9.65493L20.6963 9.22661H21.4248L21.65 8.53366Z" fill="#F0F0F0"/>
<path d="M14.6732 6.11469L14.8984 6.80757H15.627L15.0375 7.23595L15.2627 7.92884L14.6732 7.50058L14.0837 7.92884L14.3089 7.23595L13.7195 6.80757H14.448L14.6732 6.11469Z" fill="#F0F0F0"/>
<path d="M16.9988 6.11469L17.2239 6.80757H17.9526L17.3631 7.23595L17.5882 7.92884L16.9988 7.50058L16.4092 7.92884L16.6345 7.23595L16.0449 6.80757H16.7736L16.9988 6.11469Z" fill="#F0F0F0"/>
<path d="M19.3245 6.11469L19.5496 6.80757H20.2782L19.6888 7.23595L19.914 7.92884L19.3245 7.50058L18.7349 7.92884L18.9602 7.23595L18.3706 6.80757H19.0992L19.3245 6.11469Z" fill="#F0F0F0"/>
<path d="M21.65 6.11469L21.8752 6.80757H22.6038L22.0144 7.23595L22.2396 7.92884L21.65 7.50058L21.0605 7.92884L21.2857 7.23595L20.6963 6.80757H21.4248L21.65 6.11469Z" fill="#F0F0F0"/>
<path d="M16.9988 3.69563L17.2239 4.38865H17.9526L17.3631 4.8169L17.5882 5.50992L16.9988 5.08166L16.4092 5.50992L16.6345 4.8169L16.0449 4.38865H16.7736L16.9988 3.69563Z" fill="#F0F0F0"/>
<path d="M19.3245 3.69563L19.5496 4.38865H20.2782L19.6888 4.8169L19.914 5.50992L19.3245 5.08166L18.7349 5.50992L18.9602 4.8169L18.3706 4.38865H19.0992L19.3245 3.69563Z" fill="#F0F0F0"/>
<path d="M21.65 3.69563L21.8752 4.38865H22.6038L22.0144 4.8169L22.2396 5.50992L21.65 5.08166L21.0605 5.50992L21.2857 4.8169L20.6963 4.38865H21.4248L21.65 3.69563Z" fill="#F0F0F0"/>
</g>
<defs>
<clipPath id="clip0_595_4573">
<rect width="34" height="34" fill="white"/>
</clipPath>
</defs>
</svg>
