<svg width="28" height="28" viewBox="0 0 28 28" fill="none" xmlns="http://www.w3.org/2000/svg">
<path d="M11.5899 5.54655C11.7915 5.94937 12.5368 6.78165 14.2627 7.21312C15.072 7.4154 15.665 7.35629 16.4255 7.28191C17.2045 7.20573 18.1085 7.12248 19.3872 7.37822C21.4683 7.79451 23.0181 9.16996 23.5697 9.90514C23.7149 10.0988 23.7507 10.3541 23.6642 10.5802L20.1769 19.6909C20.0852 19.9304 19.8705 20.102 19.6165 20.1376C19.3626 20.173 19.109 20.0675 18.9552 19.8624C18.5429 19.3127 17.4892 18.224 15.844 17.895C14.7717 17.6806 14.067 17.7416 13.3611 17.8078C12.6288 17.8766 11.8547 17.9577 10.7892 17.6914C9.53523 17.3778 8.57281 16.7981 7.91835 16.2046L5.65466 22.3811C5.52079 22.7463 4.98312 22.9264 4.45322 22.7321C3.92337 22.5379 3.94728 21.8007 4.08112 21.4354L10.0476 5.15767C10.3442 4.39844 11.1702 4.70752 11.5899 5.54655ZM8.46042 14.7269C8.78573 15.1574 9.52082 15.8146 10.7137 16.2046C10.8472 16.2482 10.9864 16.2885 11.1313 16.3247C11.9389 16.5266 12.5002 16.4739 13.2157 16.4067C13.2201 16.4063 13.2246 16.4058 13.229 16.4054C13.9775 16.3352 14.8455 16.2586 16.121 16.5137C16.5292 16.5953 16.9079 16.7128 17.257 16.8542C18.0984 17.1951 18.7682 17.6753 19.2661 18.1289L21.4104 12.5259L22.1975 10.4692C21.7947 10.0509 21.084 9.47955 20.1769 9.09277C19.846 8.95167 19.4889 8.83513 19.1111 8.75954C18.1867 8.57466 17.5113 8.59826 16.8652 8.655C16.7641 8.66389 16.6636 8.67358 16.5631 8.68341C15.8017 8.75788 14.9896 8.84703 13.9206 8.57977C13.8337 8.55805 13.7485 8.53534 13.6649 8.51169C12.5812 8.20519 11.7714 7.74188 11.202 7.24889L10.4264 9.36439L8.46042 14.7269Z" fill="#562DF8"/>
<path d="M11.7056 13.6191C10.5318 13.1897 9.8046 12.3659 9.48236 11.9394L8.46042 14.7269C8.78573 15.1574 9.52082 15.8146 10.7137 16.2046L11.7056 13.6191Z" fill="#562DF8"/>
<path d="M12.157 13.7577C13.1495 14.0057 13.9504 13.9123 14.7952 13.8738L16.0164 10.7949C15.1077 10.8649 14.403 11.0554 13.229 10.9578C13.0718 10.9448 12.9147 10.9149 12.7594 10.8719L11.7056 13.6191C11.8493 13.6717 11.9998 13.7184 12.157 13.7577Z" fill="#562DF8"/>
<path d="M13.6649 8.51169C12.5812 8.20519 11.7714 7.74188 11.202 7.24889L10.4264 9.36439C10.8083 9.74794 11.7445 10.5907 12.7594 10.8719L13.6649 8.51169Z" fill="#562DF8"/>
<path d="M20.1769 9.09277C19.846 8.95167 19.4889 8.83513 19.1111 8.75954C18.1867 8.57466 17.5113 8.59826 16.8652 8.655L16.0164 10.7949C16.4333 10.7628 16.8931 10.7561 17.4608 10.8142C18.1862 10.8884 18.8124 11.0681 19.3498 11.2912L20.1769 9.09277Z" fill="#562DF8"/>
<path d="M18.1442 14.496C18.9857 14.8692 19.7386 15.3497 20.1769 15.749L21.4104 12.5259C20.956 12.2023 20.288 11.6806 19.3498 11.2912L18.1442 14.496Z" fill="#562DF8"/>
<path d="M13.7454 16.3616C14.3807 16.3175 15.1271 16.3149 16.121 16.5137C16.5292 16.5953 16.9079 16.7128 17.257 16.8542L18.1442 14.496C17.633 14.2693 17.0891 14.0823 16.5631 13.977C15.9121 13.8468 15.3444 13.8487 14.7952 13.8738L13.7454 16.3616Z" fill="#562DF8"/>
</svg>
