<svg width="24" height="24" viewBox="0 0 24 24" fill="none" xmlns="http://www.w3.org/2000/svg">
<path d="M16.9011 3.50051C17.2672 2.93533 17.969 2.3999 18.7013 2.3999C20.3184 2.3999 21.5999 3.64924 21.5999 5.40427V18.3141C21.5999 18.9713 21.0535 19.504 20.3794 19.504H18.7928C18.1188 19.504 17.5723 18.9713 17.5723 18.3141V11.77H9.94056C10.024 16.4064 10.9898 18.4149 11.4115 19.2919C11.6275 19.7412 11.7008 19.8936 11.4395 19.9502C8.23574 18.909 6.64913 14.2984 6.64913 10.2529C6.64913 5.99919 7.80858 3.2328 10.8292 2.81635C10.0873 5.38804 9.96408 5.90462 9.9469 9.0928L17.5723 9.0928V4.30366C17.5723 3.35178 16.9011 3.50051 16.9011 3.50051Z" fill="#101828"/>
<path fill-rule="evenodd" clip-rule="evenodd" d="M3.25062 13.6373C2.99167 13.744 2.65521 14.3366 2.50305 14.8925C1.72042 17.7519 5.49795 22.1987 10.2156 21.5329C10.6298 21.4745 11.1958 21.2465 11.1958 20.8729C11.1958 20.6977 11.0982 20.6809 10.9002 20.6468C10.7033 20.6128 10.4072 20.5618 10.0092 20.3208C7.70095 19.3205 5.6839 15.7045 5.39815 10.3421C5.39815 8.52763 5.55071 7.07006 6.19145 5.9992C2.90483 8.33191 3.67 12.6732 5.00111 16.1588C5.78392 18.2087 7.30339 19.7063 7.90833 20.0887C8.63273 20.5465 8.76581 20.875 7.59001 20.3404C6.12709 19.6753 4.82479 17.7307 4.21228 16.3201C3.77333 15.3092 3.64185 14.9873 3.25062 13.6373Z" fill="#101828"/>
</svg>
