<svg width="24" height="24" viewBox="0 0 24 24" fill="none" xmlns="http://www.w3.org/2000/svg">
<path d="M20.9993 21.2497V9.97973C20.9993 9.35973 20.7193 8.77973 20.2293 8.39973L18.9993 7.43973L18.9793 4.98973C18.9793 4.43973 18.5293 3.99973 17.9793 3.99973H14.5693L13.2293 2.95973C12.5093 2.38973 11.4893 2.38973 10.7693 2.95973L3.76928 8.39973C3.27928 8.77973 2.99928 9.35973 2.99928 9.96973L2.94928 21.2497C2.91169 21.2497 20.9993 21.2497 20.9993 21.2497ZM6.49928 12.7497V11.2497C6.49928 10.6997 6.94928 10.2497 7.49928 10.2497H9.49928C10.0493 10.2497 10.4993 10.6997 10.4993 11.2497V12.7497C10.4993 13.2997 10.0493 13.7497 9.49928 13.7497H7.49928C6.94928 13.7497 6.49928 13.2997 6.49928 12.7497ZM14.4993 21.2497H9.49928V18.4997C9.49928 17.6697 10.1693 16.9997 10.9993 16.9997H12.9993C13.8293 16.9997 14.4993 17.6697 14.4993 18.4997V21.2497ZM17.4993 12.7497C17.4993 13.2997 17.0493 13.7497 16.4993 13.7497H14.4993C13.9493 13.7497 13.4993 13.2997 13.4993 12.7497V11.2497C13.4993 10.6997 13.9493 10.2497 14.4993 10.2497H16.4993C17.0493 10.2497 17.4993 10.6997 17.4993 11.2497V12.7497Z" fill="#562DF8"/>
</svg>
