<svg width="24" height="24" viewBox="0 0 24 24" fill="none" xmlns="http://www.w3.org/2000/svg">
<path d="M20.4461 1.26924L20.4331 1.51777C20.4331 1.51777 20.4331 1.53848 20.4331 1.54625C20.1076 11.0344 14.0349 19.0727 5.57156 22.3321C4.91272 22.5858 4.23826 22.8084 3.55078 23V18.4514C5.86582 17.6489 7.61316 16.7117 9.40999 15.1247C8.68084 10.4622 7.49077 6.66957 5.94394 5.28713C5.5351 4.9221 5.10282 4.72535 4.6471 4.72535C4.30076 4.72535 3.92056 4.74088 3.55078 4.76418V1.2796C4.33722 1.13203 5.20959 1 5.82415 1C7.07933 1 8.12357 1.49447 8.99333 2.30478C11.0428 4.21017 12.1208 7.86303 12.6807 10.9205C12.712 11.0939 12.7432 11.2648 12.7719 11.433C13.5739 10.2707 14.2458 9.01247 14.7666 7.67922C15.4254 5.5952 15.8968 3.29889 15.9411 1.30807L15.9463 1.02848L16.0218 1.03624V1.0233H20.4461C20.4461 1.10614 20.4435 1.1864 20.4435 1.26924H20.4487H20.4461Z" fill="#101828"/>
</svg>
