<svg width="240" height="100" viewBox="0 0 240 100" fill="none" xmlns="http://www.w3.org/2000/svg">
<g clip-path="url(#clip0_7324_17288)">
<path d="M106.664 34.4346C100.175 34.4346 93.9512 35.7643 93.8865 35.7751L93.4658 35.8662V42.7456L94.0753 42.6651C94.1292 42.6598 99.2207 41.9788 104.808 41.9788C109.943 41.9788 110.601 44.1611 110.601 46.0592V46.9868C107.602 46.4989 105.121 46.2737 102.834 46.2737C93.0829 46.2737 87.7109 49.8501 87.7109 56.3381C87.7109 62.826 92.7593 66.5204 100.569 66.5204C107.322 66.5204 110.18 63.1209 111.313 60.944C112.537 64.6437 115.304 66.5204 119.56 66.5204C119.937 66.5204 120.315 66.4935 120.681 66.4453V46.6973C120.681 39.3354 118.298 34.4346 106.664 34.4346ZM110.601 56.0539C109.76 56.8528 106.933 59.2657 103.589 59.2657C100.704 59.2657 97.7968 58.1665 97.7968 55.7053C97.7968 53.9413 98.6058 52.1397 104.636 52.1397C106.82 52.1397 109.015 52.3702 110.601 52.5901V56.0539Z" fill="white"/>
<path d="M173.808 34.4346C167.32 34.4346 161.096 35.7643 161.031 35.7751L160.61 35.8662V42.7456L161.22 42.6651C161.274 42.6598 166.365 41.9788 171.953 41.9788C177.088 41.9788 177.746 44.1611 177.746 46.0592V46.9868C174.747 46.4989 172.266 46.2737 169.979 46.2737C160.227 46.2737 154.855 49.8501 154.855 56.3381C154.855 62.826 159.904 66.5204 167.714 66.5204C174.466 66.5204 177.325 63.1209 178.457 60.944C179.682 64.6437 182.449 66.5204 186.704 66.5204C187.082 66.5204 187.459 66.4935 187.826 66.4453V46.6973C187.826 39.3354 185.442 34.4346 173.808 34.4346ZM177.746 56.0539C176.904 56.8528 174.078 59.2657 170.734 59.2657C167.848 59.2657 164.941 58.1665 164.941 55.7053C164.941 53.9413 165.75 52.1397 171.78 52.1397C173.965 52.1397 176.16 52.3702 177.746 52.5901V56.0539Z" fill="white"/>
<path d="M135.935 29.4853V66.445C135.569 66.4933 135.191 66.5201 134.814 66.5201C128.784 66.5201 125.85 62.9598 125.85 55.6461V20.1609C126.88 20.0643 127.754 20 128.309 20C131.998 20 135.935 20.7346 135.935 29.4853Z" fill="white"/>
<path d="M150.437 29.4853V66.445C150.071 66.4933 149.693 66.5201 149.316 66.5201C143.286 66.5201 140.352 62.9598 140.352 55.6461V20.1609C141.382 20.0643 142.255 20 142.811 20C146.5 20 150.437 20.7346 150.437 29.4853Z" fill="white"/>
<path d="M87.1728 34.9922L87.1458 35.507C87.1458 35.507 87.1458 35.5499 87.1458 35.5659C86.4716 55.2174 73.894 71.8662 56.3651 78.6169C55.0005 79.1423 53.6036 79.6035 52.1797 80.0003V70.5793C56.9745 68.9171 60.5936 66.9761 64.3151 63.6893C62.8049 54.0324 60.3401 46.1772 57.1363 43.3139C56.2895 42.5579 55.3942 42.1504 54.4504 42.1504C53.733 42.1504 52.9456 42.1826 52.1797 42.2308V35.0137C53.8085 34.708 55.6154 34.4346 56.8882 34.4346C59.4879 34.4346 61.6507 35.4587 63.4521 37.137C67.6968 41.0834 69.9297 48.649 71.0893 54.9815C71.1541 55.3407 71.2188 55.6946 71.2781 56.0431C72.9393 53.6356 74.3308 51.0297 75.4095 48.2684C76.7741 43.952 77.7503 39.196 77.842 35.0726L77.8528 34.4936L78.0092 34.5096V34.4828H87.1728C87.1728 34.6544 87.1674 34.8206 87.1674 34.9922H87.1782H87.1728Z" fill="white"/>
</g>
<defs>
<clipPath id="clip0_7324_17288">
<rect width="135.652" height="60" fill="white" transform="translate(52.1738 20)"/>
</clipPath>
</defs>
</svg>
