<svg width="42" height="42" viewBox="0 0 42 42" fill="none" xmlns="http://www.w3.org/2000/svg">
<rect width="42" height="42" rx="11" fill="#562DF8"/>
<path d="M18.9354 13.7541C19.1081 14.0994 19.747 14.8128 21.2263 15.1826C21.92 15.356 22.4282 15.3053 23.0801 15.2416C23.7478 15.1763 24.5227 15.1049 25.6187 15.3241C27.4025 15.6809 28.7309 16.8599 29.2037 17.4901C29.3282 17.6561 29.3588 17.8749 29.2847 18.0687L26.2956 25.8778C26.217 26.0831 26.033 26.2303 25.8152 26.2607C25.5976 26.2911 25.3803 26.2007 25.2484 26.0249C24.895 25.5537 23.9918 24.6205 22.5817 24.3385C21.6626 24.1547 21.0586 24.207 20.4535 24.2638C19.8258 24.3227 19.1623 24.3923 18.249 24.164C17.1742 23.8952 16.3492 23.3983 15.7883 22.8896L13.848 28.1837C13.7332 28.4967 13.2724 28.6511 12.8182 28.4846C12.364 28.3181 12.3845 27.6862 12.4992 27.3732L17.6133 13.4208C17.8676 12.77 18.5756 13.0349 18.9354 13.7541ZM16.2529 21.623C16.5317 21.992 17.1618 22.5553 18.1843 22.8896C18.2987 22.9269 18.418 22.9615 18.5423 22.9925C19.2345 23.1656 19.7156 23.1204 20.3289 23.0628C20.3327 23.0624 20.3365 23.0621 20.3403 23.0617C20.9818 23.0015 21.7258 22.9358 22.8191 23.1545C23.169 23.2245 23.4936 23.3252 23.7928 23.4464C24.5141 23.7386 25.0881 24.1502 25.5149 24.539L27.3529 19.7364L28.0276 17.9736C27.6823 17.615 27.0732 17.1253 26.2956 16.7937C26.012 16.6728 25.7059 16.5729 25.3821 16.5081C24.5897 16.3496 24.0108 16.3699 23.457 16.4185C23.3703 16.4261 23.2842 16.4344 23.198 16.4429C22.5454 16.5067 21.8494 16.5831 20.933 16.354C20.8586 16.3354 20.7855 16.3159 20.7139 16.2957C19.785 16.0329 19.0909 15.6358 18.6028 15.2133L17.938 17.0266L16.2529 21.623Z" fill="white"/>
<path d="M19.0345 20.6734C18.0284 20.3054 17.4051 19.5992 17.1288 19.2337L16.2529 21.623C16.5317 21.992 17.1618 22.5553 18.1843 22.8896L19.0345 20.6734Z" fill="white"/>
<path d="M19.4214 20.7922C20.2721 21.0049 20.9586 20.9248 21.6828 20.8917L22.7295 18.2527C21.9506 18.3127 21.3466 18.476 20.3403 18.3923C20.2055 18.3811 20.0708 18.3555 19.9378 18.3187L19.0345 20.6734C19.1577 20.7185 19.2866 20.7585 19.4214 20.7922Z" fill="white"/>
<path d="M20.7139 16.2957C19.785 16.0329 19.0909 15.6358 18.6028 15.2133L17.938 17.0266C18.2654 17.3553 19.0678 18.0777 19.9378 18.3187L20.7139 16.2957Z" fill="white"/>
<path d="M26.2956 16.7937C26.012 16.6728 25.7059 16.5729 25.3821 16.5081C24.5897 16.3496 24.0108 16.3699 23.457 16.4185L22.7295 18.2527C23.0868 18.2252 23.4809 18.2194 23.9675 18.2692C24.5893 18.3328 25.126 18.4869 25.5867 18.6781L26.2956 16.7937Z" fill="white"/>
<path d="M24.5533 21.4251C25.2746 21.745 25.9199 22.1569 26.2956 22.4991L27.3529 19.7364C26.9634 19.459 26.3908 19.0119 25.5867 18.6781L24.5533 21.4251Z" fill="white"/>
<path d="M20.7828 23.0242C21.3274 22.9864 21.9672 22.9841 22.8191 23.1545C23.169 23.2245 23.4936 23.3252 23.7928 23.4464L24.5533 21.4251C24.1151 21.2308 23.6489 21.0704 23.198 20.9802C22.6401 20.8687 22.1535 20.8703 21.6828 20.8917L20.7828 23.0242Z" fill="white"/>
</svg>
