<svg width="24" height="24" viewBox="0 0 24 24" fill="none" xmlns="http://www.w3.org/2000/svg">
<path d="M22 16.19L22 7.81C22 4.17 19.83 2 16.19 2L7.82 2C4.17 2 2 4.17 2 7.81L2 16.18C2 19.82 4.17 21.99 7.81 21.99L16.19 21.99C19.83 22 22 19.83 22 16.19ZM18.5 7.67C18.91 7.67 19.25 8.01 19.25 8.42C19.25 8.83 18.91 9.17 18.5 9.17L14.6 9.17C14.19 9.17 13.85 8.83 13.85 8.42C13.85 8.01 14.19 7.67 14.6 7.67L18.5 7.67ZM7.56873 9.52282C7.47839 9.31938 7.28681 9.17 7.06421 9.17L5.5 9.17C5.09 9.17 4.75 8.83 4.75 8.42C4.75 8.01 5.09 7.67 5.5 7.67L7.06421 7.67C7.28681 7.67 7.47835 7.5206 7.56885 7.31723C7.9936 6.36275 8.94195 5.7 10.05 5.7C11.55 5.7 12.78 6.92 12.78 8.42C12.78 9.92 11.56 11.15 10.05 11.15C8.94185 11.15 7.99342 10.4791 7.56873 9.52282ZM5.5 16.33C5.09 16.33 4.75 15.99 4.75 15.58C4.75 15.17 5.09 14.83 5.5 14.83L9.4 14.83C9.81 14.83 10.15 15.17 10.15 15.58C10.15 15.99 9.81 16.33 9.4 16.33L5.5 16.33ZM11.23 15.58C11.23 14.08 12.45 12.85 13.96 12.85C15.0682 12.85 16.0166 13.5209 16.4413 14.4772C16.5316 14.6806 16.7232 14.83 16.9458 14.83L18.5 14.83C18.91 14.83 19.25 15.17 19.25 15.58C19.25 15.99 18.91 16.33 18.5 16.33L16.9358 16.33C16.7132 16.33 16.5216 16.4794 16.4311 16.6828C16.0064 17.6372 15.058 18.3 13.95 18.3C12.45 18.3 11.23 17.08 11.23 15.58Z" fill="#101828"/>
</svg>
