<svg width="40" height="40" viewBox="0 0 40 40" fill="none" xmlns="http://www.w3.org/2000/svg">
<g clip-path="url(#clip0_1102_11896)">
<path d="M17.4077 4.45077C18.5649 2.46396 21.4351 2.46396 22.5923 4.45077L25.8003 9.95846C26.2242 10.6863 26.9345 11.2023 27.7577 11.3806L33.9871 12.7296C36.2343 13.2162 37.1212 15.946 35.5893 17.6605L31.3425 22.4134C30.7813 23.0414 30.5099 23.8765 30.5948 24.7145L31.2369 31.0559C31.4685 33.3434 29.1464 35.0305 27.0424 34.1033L21.2097 31.5331C20.439 31.1935 19.561 31.1935 18.7903 31.5331L12.9576 34.1033C10.8536 35.0305 8.53153 33.3434 8.76315 31.0559L9.40521 24.7145C9.49005 23.8765 9.21873 23.0414 8.65754 22.4134L4.41072 17.6605C2.87876 15.946 3.76572 13.2162 6.01288 12.7296L12.2423 11.3806C13.0655 11.2023 13.7758 10.6863 14.1997 9.95846L17.4077 4.45077Z" fill="#FFA53D"/>
</g>
<defs>
<clipPath id="clip0_1102_11896">
<rect width="40" height="40" fill="white" transform="matrix(1 0 0 -1 0 40)"/>
</clipPath>
</defs>
</svg>
