<svg width="24" height="24" viewBox="0 0 24 24" fill="none" xmlns="http://www.w3.org/2000/svg">
<path fill-rule="evenodd" clip-rule="evenodd" d="M21.2466 12.7468C21.2466 16.2118 20.4485 18.794 18.8537 20.4766C17.2566 22.1617 14.7947 23 11.4728 23C8.36877 23 6.01595 22.1619 4.40836 20.4766C2.80319 18.7939 2 16.2538 2 12.8652C2 9.07123 2 5.27736 2 1.48338C2 1.21753 2.21925 1 2.48721 1H8.11517C8.38313 1 8.60238 1.21753 8.60238 1.48338C8.60238 5.35967 8.60238 9.23605 8.60238 13.1124C8.60238 14.4976 8.86077 15.5646 9.38615 16.3156C9.90915 17.0631 10.6578 17.4382 11.6337 17.4382C12.6147 17.4382 13.3623 17.0878 13.876 16.3825C14.3897 15.6771 14.6442 14.6367 14.6442 13.2618V11.0839H21.2466V12.7468Z" fill="#101828"/>
<path fill-rule="evenodd" clip-rule="evenodd" d="M14.6458 9.81332V1.50626C14.6458 1.22784 14.8754 1 15.1561 1H16.0678C16.0698 3.83595 18.3877 6.13449 21.2467 6.13449L21.2482 6.13446V9.81332H14.6458Z" fill="#101828"/>
<path fill-rule="evenodd" clip-rule="evenodd" d="M17.3674 1C18.4915 1 19.6156 1 20.7397 1C21.0204 1 21.25 1.22784 21.25 1.50626C21.25 2.62293 21.25 3.73962 21.25 4.85625C19.1057 4.85625 17.3673 3.13157 17.3673 1.0042L17.3674 1Z" fill="#101828"/>
</svg>
